<?xml version="1.0" encoding="utf-8"?>
<!DOCTYPE svg PUBLIC "-//W3C//DTD SVG 1.0//EN" "http://www.w3.org/TR/2001/REC-SVG-20010904/DTD/svg10.dtd">
<svg version="1.0" xmlns="http://www.w3.org/2000/svg" width="500px" height="533px" viewBox="0 0 500 533" preserveAspectRatio="xMidYMid meet">
 <g fill="#000000">
  <path d="M265.5 520 c-11.9 -1.9 -32.2 -10.1 -42.8 -17.4 -2.1 -1.4 -4.3 -2.6 -4.9 -2.6 -2.3 0 -13.7 -9.2 -21.9 -17.6 -12.6 -13.1 -19.6 -24.1 -23.8 -37.8 -2.9 -9.3 -2.7 -9.9 1.3 -4.1 6.7 10.1 18.1 17.6 28.8 19 4.5 0.6 4.9 0.9 4.4 2.9 -1.1 4.3 1.5 14.4 5.4 20.4 4.4 6.9 11.4 11.9 24.4 17.5 31.3 13.5 59.8 10.7 77.3 -7.6 7 -7.2 9.7 -12.1 11.8 -20.9 3.9 -16.6 -0.4 -35 -11.9 -50.5 -8.6 -11.7 -15.4 -18.1 -28.4 -26.9 -1 -0.6 4 -8.2 6 -9.1 1.9 -1 2 -1.2 0.4 -1.2 -1.3 -0.1 -1.6 -0.6 -1.1 -1.8 0.4 -1 0.9 -3.6 1.1 -5.8 l0.3 -4 -0.9 4.2 c-1.1 5.3 -4.1 11.1 -10.1 19.9 -2.7 3.9 -4.9 7.5 -4.9 8 0 0.5 0.5 0.1 1.1 -0.8 2 -3.5 6.7 -2.3 12 3.2 4.9 5.1 5.5 5.4 9.8 5 3.4 -0.3 4.1 1.4 4.2 11 0 4.7 0.5 11 1 14 0.6 3 1.3 7.4 1.6 9.7 0.8 6.2 6.4 11.8 7.9 7.8 0.9 -2.3 2.4 -1.8 2.4 0.9 0 2.4 -3.2 5.6 -5.6 5.6 -0.6 0 -3 -1.8 -5.2 -4 -2.2 -2.2 -4.2 -4 -4.5 -4 -0.3 0 0.5 2.1 1.8 4.8 1.3 2.6 2.6 5.5 2.9 6.4 0.3 1 2 2.4 3.8 3.2 3.2 1.4 3.2 1.4 0.7 1.5 -1.5 0.1 -4.2 -0.5 -6.1 -1.3 -2.7 -1.2 -3.8 -2.5 -5.7 -7.3 -1.2 -3.2 -2.7 -6.7 -3.2 -7.8 -0.7 -1.7 -0.8 -1.6 -0.4 0.5 0.3 1.4 0.7 4.7 0.9 7.4 0.3 2.6 1.3 5.7 2.2 6.7 1.6 1.8 1.6 1.9 0 1.9 -1 0 -3.1 -1.4 -4.6 -3 -2.5 -2.7 -2.9 -3.9 -3.2 -10.8 -0.2 -4.4 0.2 -9.6 1 -12.2 1.5 -5.2 2 -16.4 0.8 -19.9 -0.7 -2 -0.5 -2.3 0.8 -1.8 2.4 0.9 1.9 0 -0.6 -1.4 -2.3 -1.3 -16.3 -3.9 -22.8 -4.3 -5.6 -0.4 -5.7 -0.5 -6.8 -3.3 -2.5 -6.6 -3.7 -14.5 -3.6 -24.3 0.1 -10.6 1.8 -17.5 6.2 -25 l1.4 -2.5 -2.1 2.5 -2.1 2.5 -0.1 -3.5 c-0.2 -2.9 -0.3 -2.6 -0.8 1.5 -0.4 3.6 -1 4.9 -2 4.7 -1.1 -0.2 -1.2 0 -0.3 1 0.8 1 0.6 3 -0.7 7.6 l-1.7 6.3 -2.4 -2.6 -2.3 -2.5 2.4 -2.7 2.4 -2.8 -2.8 2.4 -2.7 2.5 -2.2 -2.1 -2.1 -2.2 2.8 -3.8 2.8 -3.8 -3.6 3.4 -3.5 3.3 -3.5 -2.6 c-1.8 -1.4 -3.9 -2.6 -4.6 -2.6 -2.2 0 -2.2 -2.7 -0.1 -6.3 2.2 -3.6 4.2 -9.7 3.3 -9.7 -0.2 0 -1.6 0.9 -3 2 -1.4 1.1 -3.1 2 -3.8 2 -1.1 0 -5.5 -7.7 -5.5 -9.7 0 -0.5 -0.9 -1.8 -2.1 -2.9 -1.8 -1.6 -2 -2.7 -1.6 -6.9 0.5 -4.3 0.5 -4.6 -0.4 -1.7 -1.2 3.9 -2.6 4.1 -3.2 0.5 -0.4 -2.8 -0.4 -2.7 -0.6 0.3 -0.1 2.1 0.7 3.8 2.5 5.5 1.5 1.3 4.1 5.7 6 9.7 1.8 3.9 3.7 7.2 4.2 7.2 0.4 0 1.7 -0.7 2.8 -1.5 1 -0.8 2.2 -1.5 2.6 -1.5 1.4 0 -2 6.2 -5.3 9.8 -2 2.1 -2.7 3.3 -1.6 2.9 3.1 -1.2 1.8 1.3 -1.8 3.4 -4 2.4 -4.5 3.3 -1.2 2.4 l2.2 -0.6 -2.4 2 c-1.3 1.2 -3.1 2.1 -4.2 2.1 -1 0 -2.1 0.5 -2.4 1 -0.3 0.6 -0.1 1 0.5 1 2.1 0 0 1.8 -2.9 2.5 -1.5 0.3 -4.5 2.4 -6.7 4.6 l-3.9 3.9 1.8 4.9 c0.9 2.7 1.7 6.9 1.7 9.3 0 3.9 0.4 4.6 2.6 5.7 2.9 1.3 5.3 0.1 5.5 -2.8 0 -1.2 0.2 -1.1 0.9 0.4 1.3 2.9 1.2 3.3 -1 5.5 -1.9 1.9 -2.2 1.9 -6.2 0.4 -2.4 -0.9 -4.9 -2.4 -5.7 -3.3 -1.7 -2 -1.1 -0.5 1.4 3.6 2.1 3.4 4.3 4.1 6.3 2.1 0.9 -0.9 1.2 -0.9 1.2 0.2 0 3.2 -1.7 4.3 -5.3 3.6 -2.7 -0.5 -4.1 -1.6 -5.7 -4.3 -1.6 -2.8 -2.4 -3.3 -3 -2.3 -1 1.7 0.3 4.5 2.5 5.4 1.8 0.7 1.1 2.6 -0.9 2.6 -0.7 0 -2.4 -1 -3.8 -2.2 -2.6 -2.3 -2.6 -2.4 -2.3 -16.3 0.2 -7.7 0.4 -14.3 0.4 -14.7 0.1 -0.4 2.2 -3.1 4.7 -5.9 2.6 -2.9 5.9 -8 7.4 -11.4 2.5 -5.6 4.3 -7.7 9.6 -11.2 1.8 -1.2 1.8 -1.2 -0.1 -0.6 -1.1 0.3 -2.5 1 -3.2 1.5 -0.8 0.7 -2.7 -0.4 -5.8 -3.3 -5.3 -4.9 -7.8 -8.6 -5.1 -7.6 0.9 0.4 1.6 0.3 1.6 -0.2 0 -0.5 -1.7 -1.1 -3.8 -1.5 -2.5 -0.4 -5.5 -2 -8.6 -4.7 -5.2 -4.6 -6.7 -6.8 -7.7 -11.9 l-0.7 -3.5 -0.1 3.6 c-0.2 6 7.1 15.3 13.6 17.3 1.1 0.4 3.3 2.2 4.8 4.2 1.4 1.9 3.8 4.6 5.3 5.9 1.8 1.7 2.2 2.5 1.2 2.5 -1.5 0 -22.2 -4.1 -22.8 -4.6 -0.2 -0.1 0.4 -1.5 1.3 -3.1 1.6 -2.6 1.5 -2.6 -1 0.4 -2.4 2.8 -2.9 3 -5.6 2.1 -3.7 -1.3 -3.7 -2.8 0 -6.7 1.6 -1.7 2.5 -3.1 2 -3.1 -0.4 0 -2.1 1.6 -3.6 3.5 -3.2 4 -4.3 4.3 -6.8 1.5 -2 -2.2 -1.9 -2.4 3.9 -8.9 1.7 -1.9 2.4 -3 1.6 -2.6 -2.7 1.4 -6 4.8 -6 6.1 0 2.6 -2.3 2.5 -5.1 -0.2 -4.4 -4.2 -3.5 -2 1.3 3.2 5.3 5.7 12 9.2 19.5 10 6.3 0.7 10.3 2.6 10.3 4.9 0 2.7 -6.3 12.8 -10.5 16.9 -2.3 2.3 -6 5.6 -8.3 7.4 -2.3 1.8 -4.2 3.9 -4.2 4.6 0 1.7 5.3 6.6 7.1 6.6 2.5 0 5.9 4.4 5.8 7.6 0 2.7 -0.1 2.8 -0.9 0.7 -1 -2.4 -6.6 -5.3 -8.7 -4.5 -3 1 -0.7 12.2 2.4 12.2 1.5 0 1.5 0.2 0.4 0.9 -1.2 0.8 -1.2 1.2 -0.2 2.5 0.7 0.8 1 1.9 0.8 2.3 -0.3 0.5 1.2 0.7 3.4 0.5 4.4 -0.5 5.1 0.4 1.5 1.8 -2.5 0.9 -8.6 -0.6 -8.6 -2.2 0 -1.2 -6.2 -7.9 -6.8 -7.3 -0.3 0.3 0.7 1.9 2.3 3.5 3.6 3.8 2.3 4 -1.6 0.3 -1.6 -1.6 -2.9 -3.7 -2.9 -4.9 0 -1.1 -0.9 -6.3 -2 -11.4 -1.1 -5.1 -2 -9.7 -2 -10.1 0 -0.4 1.8 -2.8 3.9 -5.3 2.2 -2.5 4.9 -7.1 6.1 -10.3 1.2 -3.1 2.9 -6.8 3.9 -8.1 1.8 -2.5 1.8 -2.5 -2.8 -7.3 -2.5 -2.7 -5.8 -6.1 -7.3 -7.6 -1.4 -1.5 -4.1 -3.9 -5.8 -5.2 -3.5 -2.6 -6 -7.5 -6 -11.6 0 -2.8 0.9 -3.1 3 -1.2 0.8 0.6 0.4 0 -0.9 -1.5 l-2.4 -2.7 3.2 -2.6 c1.7 -1.5 3.1 -3.2 3.1 -3.8 0 -0.6 -0.7 -0.1 -1.6 1.1 -2.3 3.4 -6 4.5 -10.1 3.1 l-3.4 -1.1 2.6 -2.5 c1.4 -1.4 2.5 -3.3 2.4 -4.2 0 -1.1 -0.3 -1 -0.9 0.5 -1.3 3.3 -5 5.4 -9.2 5.4 -4.3 0 -4.4 -0.2 -2.2 -3.5 0.9 -1.3 1.4 -3.2 1.1 -4.2 -0.4 -1.5 -0.5 -1.4 -0.6 0.4 -0.1 2.9 -5.6 7.3 -9.1 7.3 -2.4 0 -2.7 -0.3 -2.2 -2.2 0.5 -2.2 0.4 -2.1 -1.9 0.4 -1.3 1.5 -3.6 3 -5 3.3 -2.3 0.6 -2.6 0.4 -2.4 -1.7 0.1 -1.3 0 -1.5 -0.2 -0.6 -0.6 2.4 -5 6.8 -6.8 6.8 -1 0 -1.3 -0.5 -0.9 -1.2 0.4 -0.7 0.3 -0.8 -0.4 -0.4 -0.7 0.4 -1.2 1.3 -1.2 2 0 1.3 -3.1 4.6 -4.3 4.6 -0.4 0 -0.7 -0.8 -0.7 -1.7 -0.1 -1.1 -0.6 -0.5 -1.5 1.4 -1.6 3.9 -5.5 6.4 -5.5 3.6 0 -1.4 -0.3 -1.3 -1.3 0.6 -1.6 3.1 -5.7 4.8 -5.7 2.3 -0.1 -1.5 -0.2 -1.5 -1.1 0.1 -0.6 1.1 -3.4 2.9 -6.1 4.2 -4.8 2.2 -4.9 2.4 -2.7 3.5 1.2 0.7 3.9 1.3 6 1.4 4.5 0.1 4.2 1.3 -0.6 2.2 -4.2 0.8 -10.8 -0.3 -10 -1.7 0.4 -0.5 -1 -2.4 -2.9 -4.3 -2 -1.8 -3.6 -2.9 -3.6 -2.5 0 0.5 1.1 1.9 2.5 3.1 1.4 1.2 2.5 2.5 2.5 3 0 0.4 -2.4 1.4 -5.3 2.3 -3 0.9 -6.2 2.2 -7.3 3.1 -1.7 1.3 -1.6 1.4 1.1 0 5.6 -2.7 9.7 -2.9 12.5 -0.5 l2.5 2.1 -3 -0.6 c-1.6 -0.3 -4.1 -0.8 -5.5 -1.2 l-2.5 -0.6 2.4 2.1 c1.7 1.5 1.9 2.1 0.8 2.1 -2.6 0 -4.7 -1.2 -4 -2.2 1.2 -2 -9.9 4.6 -12.8 7.6 -2.9 3 -3.8 6.9 -1.9 8.1 1.9 1.2 1 2.2 -1.7 1.8 -2.7 -0.4 -2.8 -0.4 -0.8 1.3 1.9 1.6 1.9 1.6 -1.8 1.1 -4 -0.6 -10.7 -4.2 -10.7 -5.8 0 -0.4 0.6 -0.6 1.3 -0.3 0.7 0.2 2.1 -0.3 3.2 -1.1 1.9 -1.6 1.9 -1.6 -0.2 -0.6 -2.9 1.5 -3.1 1.4 -4.4 -1.1 -0.9 -1.9 -0.9 -2.1 0.2 -1 1.6 1.5 3.3 1.6 2.3 0.1 -0.4 -0.8 0.1 -0.9 1.6 -0.4 1.9 0.6 2.1 0.4 1.5 -1.4 -0.5 -1.5 -0.3 -1.9 0.7 -1.6 1.3 0.5 2.9 -2.3 6.7 -11.7 0.6 -1.6 1.8 -2.8 2.7 -2.8 1.3 0 1.5 0.6 1 2.8 l-0.7 2.7 1.6 -2.3 c1.5 -2.1 1.5 -2.4 -0.4 -5 -1.1 -1.6 -2.7 -3.5 -3.6 -4.2 -2.5 -2.1 -1.7 -3 2.6 -3 3.7 0 4 0.2 3.4 2.3 l-0.7 2.2 1.6 -2.2 c0.9 -1.2 2.4 -2.7 3.4 -3.2 1.3 -0.8 0.9 -0.9 -1.8 -0.6 -1.9 0.3 -6.2 0.7 -9.5 1.1 -5.2 0.5 -5.7 0.8 -3.5 1.6 2.7 1 6 4.1 6 5.7 0 0.5 -0.8 1.6 -1.8 2.3 -1.1 0.7 -3.1 3.2 -4.5 5.5 -3.1 5 -6.3 7.3 -9.7 7.3 -2.4 -0.1 -2.3 -0.2 0.7 -1.5 2.3 -1 4 -3 6.2 -7.4 1.7 -3.3 3.9 -6.4 4.8 -7 1.3 -0.8 1.4 -1 0.4 -1.1 -0.8 0 -2.5 -1 -3.9 -2.2 -2.3 -2.3 -2.4 -2.3 -3.8 -0.4 -0.8 1.1 -1.4 1.4 -1.4 0.7 0 -0.7 -0.5 -0.9 -1.2 -0.4 -0.7 0.4 -1.7 0.8 -2.2 0.8 -0.5 0 -1.2 0.9 -1.6 2 -0.7 1.9 -0.7 1.9 -1.9 0 -1 -1.8 -1.2 -1.5 -0.8 1.7 l0.3 3.8 -2.9 -2.8 -2.9 -2.7 0.7 2.5 0.8 2.5 -2.2 -1.9 c-2.2 -2 -2.2 -2 -1.5 0 0.7 1.7 0.6 1.8 -1.1 0.4 -1.7 -1.4 -1.7 -1.3 -1 0.8 0.7 2.3 0.7 2.3 -1.9 0.7 -2.8 -1.8 -2.9 -2.1 -2.6 -7.5 0.2 -4.8 1.8 -9.9 4.4 -13.5 l2.1 -3 0.5 3 c0.4 2.4 1.1 3.1 3.2 3.3 3.9 0.5 14.1 -4.4 17.7 -8.3 1.6 -1.8 4.4 -3.6 6 -4 1.7 -0.4 3.6 -1.5 4.1 -2.6 0.6 -1 2 -1.9 3.2 -1.9 1.8 0 1.9 0.2 0.7 1.7 -1.2 1.4 -1.2 1.6 0.1 1.1 0.8 -0.2 1.5 -1.1 1.5 -1.9 0.1 -2.7 2.1 -4.7 8.1 -8.3 9.1 -5.3 14.4 -11.7 18.7 -22.6 l1.7 -4.5 -0.4 5.2 c-0.3 2.9 -1.4 7.4 -2.6 10 -2.2 5.1 -7.5 11.3 -9.6 11.3 -0.7 0 -2.6 1.1 -4.2 2.5 -1.7 1.4 -3.6 2.5 -4.4 2.5 -0.8 0 -2.5 1.2 -3.9 2.7 -1.7 2 -1.8 2.3 -0.3 1 1.1 -0.9 2.8 -1.7 3.6 -1.7 0.9 0 2.2 -0.7 2.9 -1.7 0.8 -0.9 5.1 -3.3 9.5 -5.4 12.1 -5.5 18.4 -11.7 23.1 -22.8 l2.4 -5.6 -0.5 5.4 c-1.1 10.7 -10.7 24 -22.1 30.5 -7.1 4.1 -12.5 8.5 -12.5 10.2 0 1.1 0.5 1.2 1.8 0.6 0.9 -0.5 4.2 -1.5 7.2 -2.2 8.7 -1.9 15.3 -4.1 18.3 -6.2 3.9 -2.8 3.3 -0.8 -0.8 2.5 -3.2 2.5 -7.2 4.5 -16.8 8.6 -6.3 2.6 -0.5 7.5 7.8 6.7 4.7 -0.5 4.9 -0.4 2.5 0.9 -1.4 0.8 -4.8 1.4 -7.6 1.5 -6.5 0 -8.3 1.7 -5.9 5.4 2.1 3.1 3 3.4 1.5 0.5 -1.5 -2.7 -0.5 -5.3 1.7 -4.5 3.3 1.3 10.5 -0.6 13.9 -3.7 1.9 -1.6 3.3 -3.2 3 -3.4 -0.2 -0.2 -2.6 0.3 -5.4 1.2 -4 1.3 -5.7 1.4 -9.1 0.5 -4.8 -1.3 -5.2 -2.6 -1.4 -4.1 10.6 -4.2 14.9 -6.8 19.4 -11.7 2.7 -3 4.9 -5.8 4.9 -6.3 0 -0.5 -2.6 0.8 -5.8 3.1 -3.9 2.8 -8.2 4.6 -13.7 6 -4.4 1.1 -8.8 2.3 -9.7 2.6 -4.3 1.3 -1.1 -1.8 7.7 -7.5 5.2 -3.4 10.9 -7.9 12.6 -10.1 1.7 -2.1 3.7 -3.6 4.3 -3.4 1.7 0.6 2.9 -1 5.1 -7 1 -2.7 3.1 -6.3 4.7 -8 2.1 -2.2 2.8 -2.5 2.2 -1.1 -0.4 1.1 -0.9 3.5 -1.2 5.3 -0.7 5.1 1.9 4 5.2 -2.3 2.7 -5.2 9.5 -12.5 11.6 -12.5 0.5 0 -0.2 1.6 -1.5 3.6 -2.4 3.6 -3.4 9.4 -1.6 9.4 0.5 0 2.6 -2.2 4.6 -5 3.8 -5.1 6.9 -7.7 12 -9.9 l3 -1.3 -2.6 2.9 c-7.6 8.1 -5.6 14.7 2.1 6.8 3.5 -3.6 8.6 -6.5 11.5 -6.5 1.1 0 0.5 1.1 -2.1 3.5 -2.8 2.7 -3.5 3.8 -2.6 4.7 0.9 0.9 1.8 0.7 3.9 -0.9 4 -2.9 8.9 -5.3 10.9 -5.3 1.5 0 1.3 0.5 -0.9 2.8 -2.8 2.9 -3.5 5.2 -1.7 5.2 0.6 0 3.4 -1.3 6.3 -3 3 -1.6 6.2 -3 7.2 -3 1.7 0 1.7 0.2 -0.3 2.3 -4.9 5.2 -1 6.4 5.2 1.7 3.9 -3 9.4 -4.4 6.8 -1.8 -1.8 1.8 -1.5 2.8 0.8 2.8 2.7 0 2.5 1.6 -0.4 3.5 -3 2 -6 7.5 -5.4 10 0.4 1.6 0.6 1.4 1.3 -1 1.2 -4.3 3.6 -7.7 5.1 -7.1 0.8 0.3 2.1 -1.3 3.5 -4 2.4 -5.1 6.8 -8.4 14.6 -10.9 12.1 -3.9 30.8 -31 37.7 -54.7 4.6 -16.1 5.4 -35.5 2.1 -50.8 -1 -4.1 4.4 6.5 8 16.1 3.3 8.6 5.7 19.1 7 31.4 0.4 3.2 1.6 8.8 2.7 12.3 1 3.4 1.7 7.1 1.4 8 -1 2.9 -9.5 8.8 -20.1 13.7 -10.5 4.9 -19.2 10.9 -22.1 15.3 -1.1 1.7 0.4 0.8 4 -2.6 5.2 -4.7 8.4 -6.5 25.3 -14.4 2.4 -1.1 6.6 -4 9.4 -6.5 4 -3.7 5.3 -4.3 6 -3.2 1.7 2.7 0.9 -0.9 -2 -9.8 -1.8 -5.2 -3.4 -13.1 -4.1 -19.3 -1.3 -12.3 -5.6 -25.9 -13 -41.6 -3.3 -7.1 -5 -12 -5 -14.6 0 -4.5 -2.9 -10.8 -5.9 -12.6 -4.3 -2.5 -1.7 -16.6 3.4 -18.6 1.3 -0.5 1.3 -0.2 0 2.4 -0.8 1.6 -1.5 4 -1.5 5.3 0 2.6 2.7 8.8 4.4 9.9 2.1 1.4 4.6 0.8 4.6 -1 0 -1.2 2.7 -3.7 7.2 -6.8 12.8 -8.7 36.2 -27.9 49.4 -40.6 l12.9 -12.4 14 -2.3 c7.7 -1.2 24.6 -4.2 37.5 -6.7 69.3 -13.1 71 -13.4 71 -11.4 0 0.6 -1.1 1 -2.4 1 -1.3 0 -2.6 0.6 -2.9 1.4 -0.3 0.8 -1.9 1.7 -3.5 2.1 -4.1 0.9 -13.9 6.9 -18.4 11.2 -5.2 5 -8.2 12.4 -7.3 18 0.7 5.1 5.3 11.5 11.2 15.8 2.3 1.6 4.2 3.6 4.2 4.3 0.1 0.6 0.9 1.2 2 1.2 1 0 5.6 1.8 10.2 3.9 10.9 5.1 25.3 10.1 30.4 10.6 4.7 0.5 10.7 2.8 14.8 5.7 3.7 2.6 2.9 3.2 -1.6 1.3 -2 -0.8 -5.3 -1.5 -7.3 -1.5 -2.7 0 -3.7 -0.5 -4.1 -2 -0.4 -1.4 -1.7 -2.1 -4.8 -2.6 -2.4 -0.3 -5 -0.4 -5.7 -0.1 -0.7 0.3 0.1 0.6 1.7 0.6 6.6 0.2 5.8 1.9 -1.5 3.1 -10.1 1.7 -28.5 8 -30.1 10.4 -0.4 0.5 -1.4 0.6 -2.3 0.3 -0.9 -0.4 -1.6 -0.2 -1.6 0.3 0 0.6 -2.9 3.8 -6.3 7.3 -8.1 7.9 -10.7 14.2 -10.7 25.7 0 8.8 1.6 14.5 6.1 22.2 1.6 2.8 2.9 5.2 2.7 5.3 -0.4 0.4 -34.5 -18.1 -45.6 -24.5 -4.6 -2.8 -9 -5 -9.9 -5 -0.8 0 -1.2 -0.4 -0.8 -0.9 0.3 -0.6 -0.3 -0.9 -1.2 -0.9 -1 0 -12.4 -2.4 -25.3 -5.5 -41.8 -9.9 -52.9 -12 -62.3 -12.1 -8.3 -0.1 -8.9 0.1 -10.7 2.4 -2.5 3.2 -2.5 6.3 0 15.8 2.5 10 5.5 17.3 12.1 30.2 7 13.4 8.8 19.5 9.1 29.9 l0.3 8.4 -4.5 2.8 c-2.5 1.6 -6.6 3.9 -9.1 5.3 -2.5 1.3 -9.5 6.8 -15.4 12.2 -10.7 9.4 -15.8 13.2 -26 18.9 -6.1 3.5 -13 9.8 -18.7 17.2 -2.6 3.5 -5.8 6.3 -8.3 7.4 -3.4 1.6 -3.6 1.9 -1.5 1.8 4.2 0 6.9 -2.2 14.3 -11.9 5.8 -7.5 8.3 -10 12.7 -12.3 12.7 -6.6 16.3 -9.1 26.3 -18.4 9.2 -8.7 24.4 -19.3 27.6 -19.3 0.6 0 2 -1.3 3.2 -2.9 1.8 -2.5 2.7 -2.9 5.3 -2.5 2.4 0.4 2.8 0.3 1.6 -0.5 -0.8 -0.6 -2.2 -1.1 -3.1 -1.1 -2 0 -2.9 -2 -2.9 -6.3 0 -6.9 -3.4 -16.9 -10.5 -31.2 -10.6 -21.4 -14.7 -37.1 -11.1 -42.1 3.3 -4.5 22.8 -1.7 71.3 10.1 25.4 6.2 24.4 5.8 60.8 25.3 10.5 5.6 20.2 10.8 21.8 11.5 1.5 0.6 2.7 1.5 2.7 1.9 0 0.5 -4 0.8 -8.9 0.8 -4.8 0 -11.2 0.5 -14.1 1 -4.4 0.8 -5.6 0.7 -7 -0.5 -2.9 -2.6 -7 -1.2 -7 2.4 0 1 -2.5 2.8 -6.1 4.6 -16.9 8.2 -25.9 25.7 -25.9 50.4 0 10 0.2 11.3 2.1 12.9 2.7 2.2 5.9 8.5 5.9 11.4 0 2 -0.3 1.8 -1.7 -1 -0.9 -1.9 -2.7 -4.1 -4 -4.9 -1.5 -1 -2.2 -2.2 -1.8 -3.1 0.4 -1.1 -3 -5.2 -10.7 -13 -11 -11.1 -18.1 -16.4 -30.3 -23 -6.9 -3.8 -6.1 -3.1 7.8 5.9 7.7 5 12.8 9.3 21 18 5.9 6.2 10.7 11.4 10.7 11.5 0 0 -2.8 -0.3 -6.2 -0.8 -12.3 -1.8 -26.7 0.6 -37.8 6.2 -4.1 2.1 -6 2.6 -7.3 1.9 -2.2 -1.3 -3.7 -0.3 -3.7 2.2 0 1.1 -2.5 5 -5.7 8.6 -9.7 11.5 -16.3 28.9 -14.8 39.1 l0.7 4.5 -6.4 -6.4 c-3.6 -3.5 -7.7 -8.6 -9.3 -11.3 -3.6 -6.1 -13.1 -16.4 -19.7 -21.2 -2.7 -2 -5 -3.5 -5.2 -3.3 -0.2 0.2 3.1 3.3 7.2 6.9 8.6 7.4 14.1 14 18 21.8 1.4 2.8 3.2 5.2 4 5.2 0.7 0 4.1 2.6 7.4 5.8 l6.1 5.7 -0.7 -3.6 -0.6 -3.6 5.9 1.9 c3.2 1 6.7 2.8 7.7 3.9 1.8 2 1.8 2 -0.9 1.4 -1.5 -0.4 -3.4 -0.4 -4.3 -0.1 -1.5 0.6 -1.5 0.8 0.1 2.6 1 1.1 3 2 4.4 2 3.1 0 10.1 3.1 11.8 5.1 1 1.2 0.5 1.4 -2.8 1.1 -7 -0.7 -3.4 4.1 4 5.2 4.5 0.7 10.1 3.1 10.1 4.4 0 0.5 -1.6 0.6 -3.5 0.4 -2.6 -0.3 -3.5 0 -3.5 1.1 0 1.5 2.4 2.6 9.6 4.6 2.2 0.6 4.9 2 6 3.2 l1.9 2.1 -3.6 -0.7 c-2.2 -0.4 -3.9 -0.3 -4.3 0.3 -0.8 1.3 5 6.2 7.4 6.2 2 0 9 5.5 9 7.1 0 0.5 -1.1 0.3 -2.5 -0.3 -5.8 -2.6 -3.6 2.6 2.9 7.1 3.7 2.6 5.6 4.8 5.6 6.7 0 0.3 -0.9 0.2 -2.1 -0.1 -1.9 -0.6 -1.8 -0.2 1.1 5.5 4.5 9 8.7 22.6 10.1 32.7 3.8 28.9 -9.2 55.3 -33.2 67.2 -4.6 2.3 -10.9 4.8 -13.9 5.7 -6.8 1.8 -26.4 2.6 -34.5 1.4z m-68.1 -41.2 c-3.3 -3.5 -8 -8.9 -10.3 -12 -5.2 -7 -6.4 -7.6 -2 -1 3.1 4.4 16.7 19.2 17.7 19.2 0.3 0 -2.2 -2.8 -5.4 -6.2z m48.6 -119.1 c0 -0.6 -1.3 0.7 -3 2.8 -1.6 2.1 -3 4.1 -3 4.4 0.1 0.9 6 -6.2 6 -7.2z m-217 -20.3 c0 -1.2 -0.4 -1.2 -2 -0.4 -1.1 0.6 -2 1.7 -2 2.6 0 1.2 0.4 1.2 2 0.4 1.1 -0.6 2 -1.7 2 -2.6z m142.7 -1.4 c0.9 -1.6 2 -3 2.3 -3 0.3 -0.1 1.9 -1.2 3.5 -2.6 l3 -2.6 -3.4 1.8 c-3.2 1.8 -6.5 5.2 -7.4 7.7 -0.3 0.9 -0.9 0.9 -2.6 -0.1 -1.9 -1.1 -2.9 -0.4 -1.4 1.1 1.5 1.6 4.3 0.5 6 -2.3z m-117.9 -6.7 c0.3 -1.9 1 -2.3 3.7 -2.3 1.9 0 3.6 -0.3 3.9 -0.8 0.8 -1.3 -7.8 -0.1 -9.4 1.3 -0.8 0.8 -2.8 2 -4.4 2.8 l-2.8 1.5 4.3 -0.1 c3.7 -0.2 4.4 -0.5 4.7 -2.4z m65.2 -9.3 c0.8 -0.5 1 -1 0.4 -1 -0.7 0 -2.2 0.9 -3.5 2.1 -1.9 1.6 -2 1.8 -0.4 1 1.1 -0.6 2.7 -1.5 3.5 -2.1z m53.7 -1.5 c-1.5 -1.4 -3.3 -2.5 -3.9 -2.5 -0.6 0 0.4 1.1 2.3 2.4 4.4 3.2 5.1 3.2 1.6 0.1z m-10.2 -5 c-1.6 -0.8 -3.7 -1.4 -4.5 -1.4 -0.8 0 0.1 0.7 2 1.4 4.6 1.8 6.4 1.7 2.5 0z m-22.5 -1.5 c2 -0.6 2.1 -0.8 0.5 -0.8 -1.1 0 -2.9 0.3 -4 0.8 -2.5 1.1 0.1 1.1 3.5 0z m138.8 -4.5 c1.2 -2.5 1.7 -4.5 1.2 -4.5 -1 0 -2.4 2.2 -4 6.4 -1.6 4.3 0.5 2.9 2.8 -1.9z m-48.2 -13.2 c5.8 -6.5 6.2 -7.2 2.6 -4.3 -2.3 1.8 -5.3 4.8 -6.5 6.4 -6.2 8.2 -4.6 7.3 3.9 -2.1z m89.4 -15.9 l3.5 -1.4 -4.4 0.4 c-2.4 0.2 -4.8 0.9 -5.4 1.5 -1.6 1.6 2 1.3 6.3 -0.5z m-8 -3.5 c1.2 -0.7 1 -0.8 -0.7 -0.9 -2.8 0 -5.3 1 -5.3 2.2 0 0.9 3.3 0.3 6 -1.3z m33.9 -25.2 c0 -3.8 -0.3 -4.7 -0.9 -3.2 -1.2 2.9 -1.2 9.8 0 9 0.6 -0.3 1 -3 0.9 -5.8z m-64.5 -7.9 c0.9 -1.2 1.6 -2.9 1.5 -3.8 0 -0.9 -0.5 -0.4 -1.2 1 -0.6 1.4 -1.8 3 -2.7 3.7 -0.9 0.8 -1.1 1.2 -0.3 1.3 0.6 0 1.9 -1 2.7 -2.2z m-27.8 -13.3 c0.7 -1.9 1.4 -4.9 1.3 -6.7 -0.1 -3.2 -0.1 -3.1 -1.9 1.7 -2.9 7.8 -2.4 12.1 0.6 5z m116 -14.7 c0.8 -1.3 -1.4 -0.9 -4.5 0.7 -3 1.5 -8.1 7 -8.1 8.6 0 1 11.6 -7.6 12.6 -9.3z m32.5 -36.9 l-0.9 -5.4 -0.1 4.7 c0 2.5 0.2 5.4 0.6 6.4 1.1 3 1.4 0.1 0.4 -5.7z m-145.2 -12.8 c-0.6 -1.8 -1.3 -3 -1.5 -2.8 -0.2 0.2 0.1 1.8 0.7 3.6 0.6 1.8 1.3 3 1.5 2.8 0.2 -0.2 -0.1 -1.8 -0.7 -3.6z m152.1 -12.2 c1.2 -1.6 2 -3.2 1.7 -3.5 -0.7 -0.8 -4.7 3.7 -4.7 5.3 0 2 0.7 1.6 3 -1.8z m-8.7 -2.9 c-0.6 -0.6 -3.3 3 -3.3 4.3 0 0.5 0.9 -0.1 1.9 -1.4 1.1 -1.3 1.7 -2.6 1.4 -2.9z m-135.5 2 c2 -2.5 28.5 -12.7 45.2 -17.5 17.4 -5 55.5 -12.5 63.7 -12.5 3.7 0 12.7 0.7 19.8 1.6 33.8 4 47.4 5.5 52.5 5.9 7.6 0.6 -21.7 -3.9 -48.8 -7.5 -12.2 -1.6 -22.7 -3.2 -23.2 -3.5 -0.6 -0.3 -1 -0.2 -1 0.2 0 0.5 -1.5 0.9 -3.2 0.9 -3.5 0.1 -37.1 7.4 -57.1 12.5 -12.2 3 -34.8 11 -44.7 15.8 -3.1 1.4 -5.6 3.4 -5.8 4.4 -0.5 2.3 0.6 2.2 2.6 -0.3z m10.3 -21.6 c15.8 -14.2 46.7 -39.8 50.7 -41.7 1.5 -0.8 8.8 -2.8 16.2 -4.5 21.1 -4.9 39 -8.9 45.3 -10.3 3.1 -0.7 5.5 -1.4 5.3 -1.7 -1 -0.9 -60.9 12.4 -66.1 14.8 -5.8 2.5 -64.8 52.1 -67.2 56.4 -0.7 1.1 -1.2 3 -1.2 4.1 0 1.5 0.5 1.1 1.8 -1.5 1.1 -1.9 7.9 -8.9 15.2 -15.6z m143.4 14.4 c2.1 -0.9 3.5 -2.8 2 -2.8 -1.2 0 -5.5 2.4 -5.5 3.2 0 1.1 0.4 1 3.5 -0.4z m38.3 -14.5 c-1 -0.2 -2.6 -0.2 -3.5 0 -1 0.3 -0.2 0.5 1.7 0.5 1.9 0 2.7 -0.2 1.8 -0.5z m-35.3 -13.3 c-1.6 -1.1 -3.4 -2 -4 -2 -1.7 0.1 3.6 4 5.4 4 1 0 0.6 -0.7 -1.4 -2z m-19.4 -24.7 c-0.9 -1.6 -1 -1.5 -1.1 0.8 0 1.4 0.3 2.9 0.8 3.3 1.2 1.2 1.4 -2.2 0.3 -4.1z m2.6 -8.8 c0.9 -2.5 -0.4 -2.9 -1.7 -0.6 -0.7 1.5 -0.7 2.1 0 2.1 0.6 0 1.3 -0.7 1.7 -1.5z m-2.2 -13 c2.8 -0.7 4.1 -1.3 3 -1.3 -1.1 0 -4.2 0.6 -7 1.3 -2.7 0.7 -4.1 1.3 -3 1.3 1.1 0 4.3 -0.6 7 -1.3z m22.5 -4.5 c2 -0.6 2.1 -0.8 0.5 -0.8 -1.1 0 -3.3 0.4 -5 0.8 -2.7 0.7 -2.7 0.8 -0.5 0.8 1.4 0 3.6 -0.4 5 -0.8z m15 -2.8 c0 -0.5 -1.3 -0.7 -3 -0.4 -1.6 0.2 -3 0.6 -3 0.8 0 0.2 1.4 0.4 3 0.4 1.7 0 3 -0.4 3 -0.8z"/>
  <path d="M269.5 474.8 c-2.8 -1.6 -5.4 -5 -5.5 -7 0 -0.9 -0.4 -2 -1 -2.3 -0.5 -0.3 -1 -2.3 -1.1 -4.3 0 -2 -0.6 -5.3 -1.3 -7.1 -1.1 -3.1 -0.9 -4.5 1.6 -12.5 3 -9.6 3.5 -14.1 1.7 -15.2 -1.4 -0.8 -21.9 -2.7 -28.1 -2.6 -3.9 0.2 -4.9 -0.2 -5.9 -2 -1.7 -3.2 -1.2 -24.5 0.8 -31.1 1.7 -5.9 9 -19.7 10.4 -19.7 0.5 0 4.3 3.2 8.4 7.1 l7.5 7.2 0 7.1 0 7 -6.7 7 c-3.8 3.9 -5.6 6 -4.2 4.8 3.8 -3.3 7 -2.8 12.9 2.2 4.8 4.1 10.8 6.5 12.9 5.1 1.3 -0.8 3.9 0.4 4.5 2.1 0.3 0.8 -0.4 5.3 -1.5 10.1 -2.6 10.9 -2.1 13.9 3.5 19.8 4.1 4.3 6.4 9 5.1 10.3 -0.3 0.3 -1.2 -0.4 -2.1 -1.6 -0.8 -1.2 -2.1 -2.2 -2.9 -2.2 -0.8 0 -1.9 -0.9 -2.5 -2 -0.6 -1.1 -1.9 -2.4 -2.9 -2.9 -1.6 -0.9 -1.7 -0.6 -0.8 5.2 0.5 3.4 1.3 6.6 1.8 7.2 0.5 0.5 0.9 1.7 0.9 2.7 0 0.9 1.7 2.9 3.7 4.3 5 3.3 1.8 3.4 -4.4 0 -2.6 -1.3 -4.9 -2.2 -5.2 -2 -0.2 0.3 0.5 1.9 1.8 3.5 2.3 3.2 1.9 3.7 -1.4 1.8z m-1.1 -11.2 c-0.3 -2.1 -0.8 -3.5 -1.1 -3.2 -0.2 0.2 -0.1 2 0.3 4 0.3 2.1 0.8 3.5 1.1 3.2 0.2 -0.2 0.1 -2 -0.3 -4z"/>
  <path d="M185 417.1 c0 -0.5 0.8 -1.1 1.8 -1.5 0.9 -0.3 2.3 -0.9 3 -1.2 1.1 -0.5 1.2 -0.2 0.3 1.5 -1.1 2 -5.1 3 -5.1 1.2z"/>
  <path d="M92.9 300.4 c7.2 -7.9 7.5 -8.1 6.9 -6.9 -2.1 4.8 -3.7 6.8 -7.7 9.6 l-4.6 3.3 5.4 -6z"/>
  <path d="M179.5 286 c0.3 -0.6 1.9 -1.7 3.6 -2.5 3.3 -1.8 3.6 -3.5 1.5 -11 -1.1 -3.9 -1.4 -4.3 -1.4 -2 0 1.7 0.3 4.4 0.7 6 0.6 2.9 0.5 3 -4.4 4.3 -2.7 0.7 -6.3 2.2 -7.8 3.3 -4.2 3 -4.3 1.7 -0.2 -1.9 4.3 -3.8 4.4 -4.6 0.5 -4 -1.6 0.3 -3 0.1 -3 -0.4 0 -0.4 1.2 -4.3 2.7 -8.5 2.9 -8.5 3.6 -21.2 2 -34.3 -0.8 -6.2 -1.1 -6.7 -5.4 -10 -2.5 -1.9 -8 -7.7 -12.3 -13 -8.8 -10.9 -16.2 -18 -25.9 -24.7 -9.7 -6.8 -11.8 -9 -13.1 -13.9 -1.8 -6.4 -9.5 -12.7 -11.5 -9.4 -0.4 0.6 0.6 1 2.4 1 2.1 0 3.5 0.8 5 2.9 1.2 1.6 2.1 3.5 2.1 4.2 0 4 4.4 9.9 10.3 13.8 9.2 5.9 18.8 14.6 25.8 23.1 3.3 4.1 9.2 10.7 13 14.5 6.4 6.6 7 7.5 7.9 13 0.5 3.3 1 8.9 1 12.4 l0 6.3 -4 -3.6 c-2.2 -2 -5 -3.6 -6.1 -3.6 -2 0 -2.1 0.4 -1.5 4.6 0.7 5.2 -0.7 5.1 -2.4 -0.2 -0.9 -2.7 -0.9 -3.8 -0.1 -4.3 0.8 -0.5 0.9 -2.7 0.2 -7.7 l-0.9 -6.9 0.1 6.8 c0.1 3.7 0.1 6.7 0.1 6.7 -0.1 0 -1.9 -3 -4 -6.6 -7.7 -13.2 -18.6 -20.1 -30 -19.2 -3 0.3 -5.4 0.3 -5.4 0.1 0 -5.2 2.6 -20.9 4.1 -24.2 2.6 -6 2.3 -6.6 -0.6 -1 -1.5 2.9 -2.8 8 -3.6 13.5 -0.6 4.9 -1.2 9 -1.4 9.2 -0.1 0.1 -1.4 -3.1 -2.9 -7.3 -4 -10.8 -11 -20.3 -18.8 -25.3 -3.5 -2.3 -7.1 -4.8 -8.1 -5.7 -1 -0.9 -2.1 -1.4 -2.6 -1.1 -0.7 0.4 -13 -3 -13.8 -3.8 -0.2 -0.2 3.5 -2 8.3 -4 9.5 -4 13.3 -4.3 23.4 -2.1 7.9 1.7 9.7 1.8 5.1 0.1 -2.7 -1 -3.4 -1.8 -3.7 -4.4 -0.4 -3.7 1.6 -5.2 7.1 -5.2 3 0 3.8 0.4 4.6 2.8 0.6 1.7 2.1 3.2 3.9 3.9 2 0.7 3 1.8 3 3.1 0 3.5 1 4.9 7.3 10.3 l6.2 5.3 -6.2 -6.6 c-4.5 -4.7 -6.3 -7.4 -6.3 -9.3 0 -2 -0.7 -2.9 -3 -3.8 -1.6 -0.6 -3.4 -2.3 -4.1 -3.9 -1 -2.4 -1.7 -2.8 -4.8 -2.8 -3.1 0 -4.9 -1 -10.2 -5.6 -7.4 -6.5 -17.4 -13.4 -27.4 -19 l-7 -3.9 -18 -0.3 c-9.9 -0.2 -19.7 0 -21.8 0.5 -2.4 0.5 4.3 0.8 17.5 0.8 l21.3 0 7 3.9 c8.8 4.8 20.7 13.1 27.3 19.1 l5.2 4.6 -2.2 2.9 c-1.1 1.6 -1.8 3.6 -1.5 4.4 0.4 0.9 0.5 1.6 0.4 1.6 -0.1 0 -2.8 -0.4 -5.9 -1 -4.8 -0.7 -6.7 -0.6 -11 0.9 -9.1 3.2 -17 7 -16.4 8 0.4 0.5 -0.7 1.6 -2.4 2.4 -2.8 1.5 -2.9 1.4 -2 -0.3 0.6 -1.1 1.7 -2.3 2.6 -2.8 4.1 -2.3 3.7 -15.6 -0.6 -23 -1.1 -1.8 -2 -4 -2 -4.8 0 -0.8 -0.8 -1.4 -1.8 -1.4 -1.1 0 -2.7 -0.9 -3.8 -2.1 -2.8 -3.1 -9.7 -6.9 -16.5 -9 -7 -2.2 -22.7 -2.6 -26.2 -0.7 -2.1 1 -2.1 1 -0.7 -0.7 3.4 -4.1 7.8 -4.8 37 -6.5 l15.5 -0.8 7 4.3 c8 5 20.9 10.4 32.2 13.6 9.4 2.6 10.5 3.1 16.3 7.9 6.2 5.2 21.8 14.5 32 19.3 7.1 3.3 10.2 5.6 19 14.1 5.8 5.5 13.9 12.8 18 16.1 6.8 5.5 8.4 7.5 16.7 21.4 5.1 8.4 10.8 17.2 12.6 19.5 1.8 2.2 4.7 6.2 6.5 8.7 l3.1 4.6 -5.3 6.4 c-8 9.5 -11.5 12.5 -17.5 14.4 -3.2 1 -7.2 3.4 -9.6 5.6 -4.8 4.4 -8.2 5.4 -4.4 1.3 l2.4 -2.7 -4.3 0.6 c-2.4 0.3 -6 1.7 -8.1 3.1 -3.7 2.6 -6.8 3.5 -5.6 1.6z m3.2 -24.2 c-0.2 -1.3 -0.4 -0.5 -0.4 1.7 -0.1 2.2 0.1 3.2 0.4 2.3 0.2 -1 0.2 -2.8 0 -4z m3.2 -15.4 c0.1 -3 -2.7 -13.9 -3.4 -13.2 -0.2 0.1 0.4 3 1.2 6.2 1.2 4.8 1.3 7.1 0.4 11.4 -0.6 3.1 -1 6.2 -1 7.1 0.2 2.4 2.7 -7.9 2.8 -11.5z m-3.4 -21.4 c-0.4 -1.2 -0.9 -1.9 -1.2 -1.7 -0.3 0.3 -0.2 1.5 0.2 2.7 0.4 1.2 0.9 1.9 1.2 1.7 0.3 -0.3 0.2 -1.5 -0.2 -2.7z m-5.3 -6.2 c-2.9 -4.7 -7.4 -8.7 -17.7 -15.8 -4.9 -3.5 -10.6 -7.5 -12.5 -8.9 -2.1 -1.6 -2.9 -1.9 -2.1 -0.8 0.8 1 6.7 5.6 13 10.2 11.7 8.4 15.4 11.7 18.6 16.8 1 1.5 2 2.5 2.2 2.3 0.3 -0.3 -0.4 -2 -1.5 -3.8z m-39.6 -1.3 c-1.1 -0.8 -3.1 -1.5 -4.5 -1.5 -2.6 0.1 -2.6 0.1 0.4 1.5 4.2 1.9 6.6 1.9 4.1 0z m-33.9 -32.1 c-1.5 -1.3 -3.3 -2.4 -4 -2.4 -0.7 0 0.4 1.4 2.3 2.9 4.2 3.5 5.7 3 1.7 -0.5z m-29.8 -27.8 c-0.9 -0.8 -1 -0.7 -0.5 0.7 0.3 1 0.7 2.4 0.7 3 0.1 0.7 0.3 0.4 0.6 -0.7 0.3 -1 -0.1 -2.3 -0.8 -3z"/>
  <path d="M117.6 227.7 c-0.8 -3.8 -0.5 -5.2 1.1 -4.6 0.4 0.2 0.5 2.2 0.2 4.4 l-0.5 4 -0.8 -3.8z"/>
  <path d="M432.6 219.1 c-0.9 -1 -3.7 -2.6 -6 -3.5 -3.5 -1.4 -4.3 -2.1 -3.9 -3.6 0.3 -1.1 1 -2 1.6 -2 1.6 0 7.5 4.8 9.4 7.6 2 3 1.2 4.1 -1.1 1.5z"/>
  <path d="M447.7 64.4 c-0.4 -0.4 -0.7 -1.6 -0.7 -2.7 0 -1.8 0.5 -1.9 6 -1.3 3.3 0.4 7.5 1.3 9.3 2.1 3.2 1.4 3.2 1.4 -3.3 1.5 -3.6 0 -7.4 0.3 -8.5 0.6 -1.1 0.3 -2.4 0.2 -2.8 -0.2z"/>
 </g>
</svg>